<svg class="logo-fill" version="1.1" xmlns="http://www.w3.org/2000/svg" xmlns:xlink="http://www.w3.org/1999/xlink" xmlns:a="http://ns.adobe.com/AdobeSVGViewerExtensions/3.0/" x="0px" y="0px" viewBox="0 0 67.2 19.3" style="fill:white" xml:space="preserve">
<g>
	<path class="st0" d="M36.4,11.7c-0.6-1.9-1.3-3.8-1.9-5.7c-0.1-0.2-0.2-0.3-0.4-0.3c-1.5,0-3,0-4.4,0c-0.1,0-0.2,0-0.3,0
		c0,0,0,0,0,0c-1.4,0-2.8,0-4.2,0c0,0.5,0,0.9,0,1.3c-0.4-0.3-0.8-0.7-1.2-0.9c-1.1-0.7-2.4-0.8-3.6-0.6c-0.9,0.1-1.7,0.4-2.4,0.8
		c-0.8-2.6-2.6-4.4-5.3-5.4C11,0.2,9.2,0,7.4,0C5,0,2.7,0,0.3,0C0.2,0,0.1,0,0,0c0,6.4,0,12.7,0,19c0.1,0,0.1,0,0.2,0
		c2.5,0,4.9,0,7.4,0c2.2,0,4.3-0.3,6.2-1.4c0.7-0.4,1.4-0.9,2-1.4c0.3,0.4,0.6,0.9,1,1.3c1.2,1.2,2.7,1.9,4.5,1.9
		c1.1,0,2.2-0.3,3.1-1c0.3-0.2,0.5-0.5,0.8-0.8c0,0.5,0,0.9,0,1.4c1.5,0,3,0,4.4,0c0-2,0-4,0-6h-4.8c-0.2,0.9-0.6,1.6-1.6,2.1
		c-1.9,0.8-3.8-0.3-4-2.3c-0.1-0.8,0-1.6,0.6-2.3c0.8-1,1.8-1.2,2.9-1c1.2,0.3,1.9,1.1,2.1,2.2h4.8c0-1.8,0-3.6,0-5.3
		c0.7,1.8,1.4,3.6,2.2,5.3H36.4z M12.1,12.8c-0.7,1-1.7,1.5-2.9,1.8c-1.4,0.3-2.8,0.2-4.2,0.2c0-3.5,0-7,0-10.4c0,0,0,0,0.1,0
		c1.3,0,2.6-0.1,3.9,0.2c2.6,0.5,4.1,2.5,4.1,5.2C13.1,10.8,12.9,11.8,12.1,12.8z"></path>
	<path class="st0" d="M40.5,5.7c-0.2,0-0.3,0.1-0.4,0.3c-0.6,1.8-1.2,3.7-1.9,5.5c0,0.1,0,0.1-0.1,0.2h4.3c0.6-1.6,1.3-3.2,1.9-4.8
		c0.2-0.4,0.3-0.8,0.5-1.2C43.4,5.7,42,5.7,40.5,5.7z"></path>
	<path class="st0" d="M37.3,14.2C37.3,14.2,37.3,14.2,37.3,14.2c-0.1-0.1-0.2-0.2-0.2-0.3c-0.1-0.3-0.2-0.6-0.3-0.9h-4.6
		c0.8,1.9,1.5,3.8,2.3,5.8C34.7,19,34.8,19,35,19c1.4,0,2.8,0,4.2,0c0.2,0,0.3-0.1,0.4-0.3c0.8-1.9,1.5-3.8,2.3-5.7h-4.2
		C37.6,13.4,37.5,13.8,37.3,14.2z"></path>
	<path class="st0" d="M44.9,19c1.7,0,3.3,0,5,0c0-1.9,0-3.8,0-5.7c0-0.1,0-0.2,0-0.3h-5C44.9,15,44.9,17,44.9,19z"></path>
	<path class="st0" d="M62.8,5.7c0,0.4,0,0.9,0,1.3c-0.4-0.3-0.8-0.7-1.2-1c-1.1-0.7-2.4-0.8-3.6-0.6c-1.7,0.3-3.1,1-4,2.2
		c0-0.8,0-1.6,0-2.4c-1.8,0-3.4,0.5-4.6,2c0,0,0,0-0.1-0.1c0-0.5,0-1,0-1.5c-1.5,0-2.9,0-4.4,0c0,2,0,4,0,6H50c0.3-0.9,1-1.5,2-1.8
		c0.3-0.1,0.6-0.1,0.8-0.1c-0.2,0.6-0.3,1.3-0.4,1.9h4.5c0.2-1,0.8-1.8,1.6-2.1c1.1-0.4,2.4-0.2,3.2,0.7c0.6,0.6,0.8,1.3,0.8,2.1
		c0,1.2-0.5,2.2-1.6,2.7c-1.8,0.8-3.6-0.2-3.9-2.1h-4.5c0,0.2,0,0.4,0.1,0.6c0.2,1.5,0.8,2.8,1.9,3.9c1.2,1.2,2.7,1.8,4.4,1.8
		c1.1,0,2.2-0.3,3.1-1c0.3-0.2,0.5-0.5,0.8-0.8c0,0.5,0,1,0,1.4c1.5,0,3,0,4.4,0c0-4.4,0-8.8,0-13.3C65.8,5.7,64.3,5.7,62.8,5.7z"></path>
</g>
</svg>